<?xml version="1.0"?><svg fill="currentColor" xmlns="http://www.w3.org/2000/svg"  viewBox="0 0 50 50" width="50px" height="50px">    <path d="M21.296,49c-10.159,0-13.219-9.228-13.249-9.321c-0.124-0.389,0.001-0.814,0.315-1.074l6.5-5.375 c0.276-0.228,0.654-0.292,0.987-0.166c0.335,0.125,0.578,0.419,0.637,0.772C16.522,34.043,17.441,39,22.5,39 c3.068,0,6.5-2.405,6.5-5.625c0-2.545-2.379-3.663-6.26-5.277C18.4,26.293,13,24.047,13,17.5C13,7.776,21.805,1,29.707,1 c3.938,0,9.537,2.019,12.091,5.396c0.28,0.371,0.268,0.887-0.03,1.244l-5,6c-0.218,0.263-0.555,0.391-0.896,0.352 c-0.338-0.044-0.63-0.257-0.776-0.564l0,0C35.029,13.288,33.418,10,29.941,10C27.609,10,25,12.139,25,15 c0,2.008,2.022,3.146,5.32,4.836C34.633,22.046,40,24.797,40,32c0,7.755-4.374,13.766-11.699,16.078 C25.834,48.857,24.007,49,21.296,49z"/></svg>